<?xml version="1.0" encoding="UTF-8" standalone="no"?>
<svg
   zoomAndPan="magnify"
   viewBox="0 0 120 120"
   preserveAspectRatio="xMidYMid"
   version="1.0"
   x="0px"
   y="0px"
   id="svg3"
   width="120"
   height="120"
   xmlns="http://www.w3.org/2000/svg"
   xmlns:svg="http://www.w3.org/2000/svg">
  <defs
     id="defs3" />
  <rect
     style="fill:#cd2e3a;fill-opacity:1;stroke-width:1.35494"
     id="rect3"
     width="120"
     height="120"
     x="0"
     y="0" />
  <path
     fill="#ffffff"
     d="m 75.441185,23.565962 c 1.71875,-1.8125 4.648437,-2.921875 6.824218,-0.976563 3.132813,2.804688 0.308594,7.042969 -2.265624,9.023438 -1.542969,1.1875 -3.113282,2.074219 -4.707032,2.667969 -0.195312,0.07422 -0.394531,0.08203 -0.589844,0.02734 -0.292968,-0.08594 -0.570312,-0.210937 -0.835937,-0.371093 -2.996094,-1.84375 -6.480469,-4.222657 -7.210937,-7.769531 -0.242188,-1.175782 0.21875,-2.867188 1.035156,-3.785157 2.253906,-2.542969 5.425781,-1.117187 7.257812,1.167969 0.0625,0.07813 0.140625,0.117188 0.238282,0.121094 0.101562,0.0039 0.183593,-0.03125 0.253906,-0.105469 z m 0.144531,3.992187 c -0.136719,0.09375 -0.289063,0.160157 -0.453125,0.199219 -0.164062,0.03516 -0.328125,0.03906 -0.492188,0.0078 -0.167968,-0.02734 -0.320312,-0.08594 -0.460937,-0.175782 -0.144531,-0.09375 -0.261719,-0.207031 -0.359375,-0.34375 -0.84375,-1.199218 -1.75,-2.183593 -2.710938,-2.957031 -0.09375,-0.07422 -0.199218,-0.121093 -0.316406,-0.148437 -0.113281,-0.02344 -0.230468,-0.01953 -0.34375,0.01172 -0.117187,0.02734 -0.21875,0.08203 -0.304687,0.160157 -0.08984,0.07813 -0.15625,0.171875 -0.199219,0.28125 -0.972656,2.375 3.15625,5.070312 4.628906,6.292969 0.144532,0.117187 0.304688,0.140624 0.472656,0.07031 1.804688,-0.753906 5.308594,-3.140625 5.414063,-5.332031 0.0078,-0.148438 -0.01953,-0.292969 -0.08203,-0.429688 -0.0625,-0.136719 -0.152344,-0.25 -0.269532,-0.34375 -0.121093,-0.08984 -0.253906,-0.148437 -0.402343,-0.175781 -0.148438,-0.02734 -0.292969,-0.01563 -0.4375,0.03125 -1.582031,0.503906 -2.386719,1.949219 -3.683594,2.851562 z m 0,0"
     fill-opacity="1"
     fill-rule="nonzero"
     id="path1"
     style="fill:#ffffff" />
  <path
     fill="#ffffff"
     d="m 54.542392,45.533736 c -2.851343,-6.468906 1.989651,-11.899663 8.044136,-6.404129 2.578506,2.343331 4.946088,4.655816 7.098484,6.933942 0.475902,0.503864 0.972919,0.530897 1.494568,0.07684 0.909463,-0.78937 1.873024,-1.505431 2.894942,-2.144666 2.143252,-1.346839 5.780779,-1.92225 7.799153,-0.01979 2.284745,2.143823 1.981025,4.507684 0.531711,7.079187 -1.395276,2.480007 -2.665068,4.794976 -3.808629,6.952684 -0.485552,0.913646 -0.839545,2.054082 -0.498067,3.080928 0.196874,0.581558 0.33968,1.172209 0.428048,1.768065 0.844558,5.836738 0.932714,11.765421 0.255949,17.779018 -0.02695,0.210552 0.04032,0.380702 0.199074,0.522485 l 2.454011,2.190425 c 0.137075,0.12031 0.214535,0.27379 0.235527,0.452291 0.02099,0.178501 -0.02209,0.343506 -0.125733,0.490758 -0.374599,0.514555 -0.828114,0.942478 -1.360546,1.283769 -0.16217,0.109684 -0.329748,0.12178 -0.51051,0.03704 C 77.451842,84.56941 75.584889,82.526905 75.806687,79.962901 76.351149,73.714739 76.00511,67.46932 74.768944,61.230533 74.297331,58.842707 73.535659,56.745528 72.483559,54.935108 69.762136,50.235306 65.743484,46.291318 61.66136,42.463274 60.532141,41.4058 59.35375,40.572777 58.130446,39.967719 c -0.127235,-0.05846 -0.259647,-0.08897 -0.396861,-0.08762 -0.141101,0.0017 -0.27108,0.03769 -0.394195,0.104406 -0.123116,0.06671 -0.224186,0.158779 -0.303583,0.27232 -0.07514,0.117059 -0.121939,0.243179 -0.140033,0.382252 -0.171651,1.487938 0.142252,3.04717 0.92967,4.674924 2.167844,4.450581 4.932088,9.762366 3.775888,14.742687 -0.04677,0.208524 -0.16059,0.372445 -0.3372,0.495282 -0.424126,0.283847 -0.922941,0.402175 -1.492554,0.354616 -0.59406,-0.057 -0.903608,-0.380566 -0.929387,-0.978483 -0.181789,-3.788961 -0.600297,-7.755417 -2.868342,-10.791601 -0.07652,-0.102557 -0.173016,-0.167888 -0.29765,-0.199135 -0.124634,-0.03125 -0.241289,-0.02009 -0.357743,0.03421 -0.973291,0.450155 -1.709117,1.085579 -2.207481,1.906273 -1.904455,3.105532 -2.291382,6.281782 -1.168559,9.529496 0.066,0.197741 0.06089,0.390509 -0.01459,0.586082 -0.320809,0.748779 -0.813783,1.133386 -1.480035,1.142156 -0.191654,0.0066 -0.35463,-0.05634 -0.492448,-0.184433 -2.386791,-2.18508 -1.90214,-5.488396 -1.354746,-8.381763 0.02976,-0.140187 0.02063,-0.276656 -0.02385,-0.413669 -0.04449,-0.137012 -0.118235,-0.251608 -0.221971,-0.351562 -0.103735,-0.09996 -0.223938,-0.166943 -0.364498,-0.200592 -0.137042,-0.03791 -0.278516,-0.04008 -0.416643,-0.0072 -0.781731,0.196394 -1.531579,0.479993 -2.253432,0.851169 -1.906548,0.990659 -2.908527,3.931416 -3.198909,5.819189 -0.1875,1.199072 0.39739,2.473404 0.725034,3.642839 0.277573,0.974097 -0.37201,1.977985 -1.285547,2.273312 -0.202001,0.06248 -0.399775,0.04606 -0.589427,-0.04959 -1.684673,-0.874867 -1.704414,-4.118183 -1.746353,-5.82899 -9.75e-4,-0.133325 -0.05453,-0.242002 -0.160668,-0.326031 -0.105768,-0.08014 -0.226139,-0.107871 -0.35649,-0.07579 -1.393311,0.325506 -2.372628,0.999909 -2.937948,2.023209 -2.286272,4.119133 -1.115421,9.01821 0.10313,13.226015 1.69691,5.845485 4.942259,10.730633 9.736044,14.65544 3.512911,2.881835 6.609519,4.692965 6.283726,9.903885 -0.05393,0.872376 -0.515389,1.340308 -1.387532,1.411928 -1.192117,0.0904 -1.90339,-0.453702 -1.774621,-1.733493 0.20203,-1.949958 -0.465557,-3.514613 -2.002388,-4.690073 -1.676309,-1.279847 -3.287828,-2.620824 -4.8303,-4.019418 -5.124586,-4.634825 -8.428282,-11.033008 -9.78315,-17.774498 -0.18256,-0.92432 -0.405664,-2.806159 -0.665794,-5.649779 -0.456143,-5.057671 2.309131,-10.282103 7.982521,-10.208506 0.231653,0.0014 0.386418,-0.103662 0.460037,-0.318673 1.635789,-4.519974 4.885764,-6.522005 9.754185,-6.002576 0.206293,0.02344 0.376444,-0.04383 0.513965,-0.206107 1.302667,-1.560768 2.725087,-2.771972 4.267633,-3.629724 0.14496,-0.08449 0.184728,-0.202095 0.115045,-0.356318 z m 24.261326,0.521189 c -2.640658,-0.202695 -4.247263,1.175235 -6.145276,2.706599 -0.328028,0.262886 -0.355326,0.551953 -0.078,0.866829 1.476662,1.695266 2.634496,3.503425 3.477392,5.424102 0.05004,0.112938 0.134502,0.175494 0.260794,0.18304 0.126291,0.0075 0.219413,-0.04453 0.27974,-0.152319 1.307964,-2.244063 2.520574,-4.459386 3.645606,-6.646716 0.704812,-1.370183 -0.0092,-2.271155 -1.440255,-2.381535 z m 0,0"
     fill-opacity="1"
     fill-rule="nonzero"
     id="path2"
     style="fill:#ffffff" />
</svg>
