<?xml version="1.0" encoding="UTF-8" standalone="no"?>
<svg
   zoomAndPan="magnify"
   viewBox="0 0 27.640406 27.640406"
   preserveAspectRatio="xMidYMid"
   version="1.0"
   x="0px"
   y="0px"
   id="svg3"
   width="27.640406"
   height="27.640406"
   xmlns="http://www.w3.org/2000/svg"
   xmlns:svg="http://www.w3.org/2000/svg">
  <defs
     id="defs3" />
  <circle
     style="fill:#8e51ff;fill-opacity:1;stroke-width:0.989595"
     id="path2"
     cx="13.820203"
     cy="13.820203"
     r="13.820203" />
  <path
     fill="#ffffff"
     d="m 15.798621,8.2054149 c 1.71875,-1.8125 4.648437,-2.921875 6.824218,-0.976563 3.132813,2.8046881 0.308594,7.0429691 -2.265624,9.0234381 -1.542969,1.1875 -3.113282,2.074219 -4.707032,2.667969 -0.195312,0.07422 -0.394531,0.08203 -0.589844,0.02734 -0.292968,-0.08594 -0.570312,-0.210937 -0.835937,-0.371093 -2.996094,-1.84375 -6.4804691,-4.222657 -7.2109367,-7.769531 -0.242188,-1.1757821 0.21875,-2.8671881 1.0351556,-3.7851571 2.2539061,-2.542969 5.4257811,-1.117187 7.2578121,1.167969 0.0625,0.07813 0.140625,0.117188 0.238282,0.121094 0.101562,0.0039 0.183593,-0.03125 0.253906,-0.105469 z m 0.144531,3.9921871 c -0.136719,0.09375 -0.289063,0.160157 -0.453125,0.199219 -0.164062,0.03516 -0.328125,0.03906 -0.492188,0.0078 -0.167968,-0.02734 -0.320312,-0.08594 -0.460937,-0.175782 -0.144531,-0.09375 -0.261719,-0.207031 -0.359375,-0.34375 -0.84375,-1.199218 -1.75,-2.1835931 -2.710938,-2.9570311 -0.09375,-0.07422 -0.199218,-0.121093 -0.316406,-0.148437 -0.113281,-0.02344 -0.230468,-0.01953 -0.34375,0.01172 -0.117187,0.02734 -0.21875,0.08203 -0.304687,0.160157 -0.08984,0.07813 -0.15625,0.171875 -0.199219,0.28125 -0.9726561,2.3750001 3.15625,5.0703121 4.628906,6.2929691 0.144532,0.117187 0.304688,0.140624 0.472656,0.07031 1.804688,-0.753906 5.308594,-3.140625 5.414063,-5.332031 0.0078,-0.148438 -0.01953,-0.2929691 -0.08203,-0.4296881 -0.0625,-0.136719 -0.152344,-0.25 -0.269532,-0.34375 -0.121093,-0.08984 -0.253906,-0.148437 -0.402343,-0.175781 -0.148438,-0.02734 -0.292969,-0.01563 -0.4375,0.03125 -1.582031,0.503906 -2.386719,1.9492191 -3.683594,2.8515621 z m 0,0"
     fill-opacity="1"
     fill-rule="nonzero"
     id="path1"
     style="fill:#ffffff" />
</svg>
