<?xml version="1.0" encoding="UTF-8" standalone="no"?>
<svg
   zoomAndPan="magnify"
   viewBox="0 0 100 100"
   preserveAspectRatio="xMidYMid"
   version="1.0"
   x="0px"
   y="0px"
   id="svg3"
   width="100"
   height="100"
   xmlns="http://www.w3.org/2000/svg"
   xmlns:svg="http://www.w3.org/2000/svg">
  <defs
     id="defs3" />
  <rect
     style="fill:#cd2e3a;stroke-width:1.12912;fill-opacity:1"
     id="rect3"
     width="100"
     height="100"
     x="0"
     y="0" />
  <path
     fill="#000000"
     d="m 69.734375,18.152343 c 1.71875,-1.8125 4.648437,-2.921875 6.824218,-0.976563 3.132813,2.804688 0.308594,7.042969 -2.265624,9.023438 -1.542969,1.1875 -3.113282,2.074219 -4.707032,2.667969 -0.195312,0.07422 -0.394531,0.08203 -0.589844,0.02734 -0.292968,-0.08594 -0.570312,-0.210937 -0.835937,-0.371093 -2.996094,-1.84375 -6.480469,-4.222657 -7.210937,-7.769531 -0.242188,-1.175782 0.21875,-2.867188 1.035156,-3.785157 2.253906,-2.542969 5.425781,-1.117187 7.257812,1.167969 0.0625,0.07813 0.140625,0.117188 0.238282,0.121094 0.101562,0.0039 0.183593,-0.03125 0.253906,-0.105469 z m 0.144531,3.992187 c -0.136719,0.09375 -0.289063,0.160157 -0.453125,0.199219 -0.164062,0.03516 -0.328125,0.03906 -0.492188,0.0078 -0.167968,-0.02734 -0.320312,-0.08594 -0.460937,-0.175782 -0.144531,-0.09375 -0.261719,-0.207031 -0.359375,-0.34375 -0.84375,-1.199218 -1.75,-2.183593 -2.710938,-2.957031 -0.09375,-0.07422 -0.199218,-0.121093 -0.316406,-0.148437 -0.113281,-0.02344 -0.230468,-0.01953 -0.34375,0.01172 -0.117187,0.02734 -0.21875,0.08203 -0.304687,0.160157 -0.08984,0.07813 -0.15625,0.171875 -0.199219,0.28125 -0.972656,2.375 3.15625,5.070312 4.628906,6.292969 0.144532,0.117187 0.304688,0.140624 0.472656,0.07031 1.804688,-0.753906 5.308594,-3.140625 5.414063,-5.332031 0.0078,-0.148438 -0.01953,-0.292969 -0.08203,-0.429688 -0.0625,-0.136719 -0.152344,-0.25 -0.269532,-0.34375 -0.121093,-0.08984 -0.253906,-0.148437 -0.402343,-0.175781 -0.148438,-0.02734 -0.292969,-0.01563 -0.4375,0.03125 -1.582031,0.503906 -2.386719,1.949219 -3.683594,2.851562 z m 0,0"
     fill-opacity="1"
     fill-rule="nonzero"
     id="path1" />
  <path
     fill="#000000"
     d="m 45.21875,33.742187 c -2.222657,-6.710938 3.113281,-11.65625 8.617187,-5.609375 2.34375,2.578125 4.480469,5.105468 6.40625,7.578125 0.425782,0.546875 0.917969,0.621093 1.480469,0.21875 0.980469,-0.699219 2.007813,-1.320313 3.085937,-1.859375 2.261719,-1.136719 5.9375,-1.363282 7.765626,0.722656 2.070312,2.351562 1.542968,4.675781 -0.144532,7.097656 -1.625,2.335938 -3.109375,4.519532 -4.453125,6.558594 -0.570312,0.863281 -1.03125,1.964844 -0.789062,3.019531 0.140625,0.597657 0.226562,1.199219 0.257812,1.800781 0.285157,5.890626 -0.191406,11.800782 -1.4375,17.722657 -0.04687,0.207031 0.0039,0.382812 0.148438,0.539062 l 2.234375,2.414063 c 0.125,0.132812 0.1875,0.292968 0.191406,0.472656 0.0039,0.179688 -0.05469,0.339844 -0.171875,0.476562 -0.421875,0.476563 -0.914063,0.859376 -1.476563,1.148438 -0.171874,0.09375 -0.339843,0.08984 -0.511718,-0.01172 -2.113282,-1.25 -3.777344,-3.460937 -3.3125,-5.992187 1.136718,-6.167969 1.386718,-12.417969 0.75,-18.746094 -0.242188,-2.421875 -0.800782,-4.582031 -1.675782,-6.484375 -2.261718,-4.9375 -5.886718,-9.246094 -9.585937,-13.445313 -1.023437,-1.160156 -2.117187,-2.101562 -3.277344,-2.820312 -0.121093,-0.07031 -0.25,-0.113281 -0.386719,-0.125 -0.140624,-0.01172 -0.273437,0.01172 -0.402343,0.06641 -0.128907,0.05469 -0.238281,0.136719 -0.328125,0.242188 -0.08594,0.109375 -0.144532,0.230468 -0.175782,0.367187 -0.3125,1.464844 -0.148437,3.046875 0.480469,4.742188 1.734375,4.636719 3.980469,10.1875 2.355469,15.035156 -0.06641,0.203125 -0.195312,0.355469 -0.382812,0.460937 -0.449219,0.242188 -0.957032,0.3125 -1.519532,0.210938 -0.585937,-0.113284 -0.863281,-0.464847 -0.832031,-1.062503 0.179687,-3.789062 0.140625,-7.777344 -1.828125,-11.015625 -0.06641,-0.109375 -0.15625,-0.183594 -0.277344,-0.226563 -0.121094,-0.04297 -0.238281,-0.04297 -0.359375,0 -1.011719,0.355469 -1.804687,0.917969 -2.378906,1.6875 -2.191406,2.910157 -2.878906,6.035157 -2.070313,9.375 0.04688,0.203126 0.02344,0.394532 -0.07031,0.582032 -0.390625,0.714844 -0.917969,1.050781 -1.582031,0.996094 -0.191407,-0.01172 -0.347657,-0.08984 -0.472657,-0.230469 -2.167968,-2.402344 -1.371093,-5.644531 -0.550781,-8.472657 0.04297,-0.136718 0.04687,-0.273437 0.01563,-0.414062 -0.03125,-0.140625 -0.09375,-0.261719 -0.1875,-0.371094 -0.09375,-0.109375 -0.207031,-0.1875 -0.34375,-0.234375 -0.132812,-0.05078 -0.273437,-0.06641 -0.414062,-0.04687 -0.796875,0.121094 -1.570313,0.332032 -2.324219,0.632813 -1.992187,0.804687 -3.269531,3.636719 -3.738281,5.488281 -0.300782,1.175781 0.160156,2.5 0.375,3.695312 0.183594,0.996094 -0.558594,1.933594 -1.496094,2.140626 -0.207031,0.04297 -0.402344,0.0078 -0.582031,-0.105469 -1.59375,-1.03125 -1.304688,-4.261719 -1.183594,-5.96875 0.01172,-0.132813 -0.03125,-0.246094 -0.128906,-0.339844 -0.09766,-0.08984 -0.214844,-0.128906 -0.347657,-0.109375 -1.417968,0.191406 -2.457031,0.769531 -3.117187,1.734375 -2.667969,3.882813 -1.96875,8.871094 -1.15625,13.175781 1.132806,5.980464 3.89843,11.152339 8.296868,15.51562 3.222656,3.203125 6.132812,5.300781 5.3125,10.457031 -0.136719,0.863282 -0.640625,1.285157 -1.515625,1.273438 -1.195313,-0.02344 -1.851563,-0.632812 -1.601563,-1.894531 0.386719,-1.921875 -0.128906,-3.542969 -1.546874,-4.859375 -1.546876,-1.433594 -3.023438,-2.921875 -4.425782,-4.460938 -4.660156,-5.101562 -7.339844,-11.785156 -8.046875,-18.625 -0.09375,-0.9375 -0.136719,-2.832031 -0.125,-5.6875 0.02734,-5.078125 3.277344,-10.015625 8.917969,-9.402344 0.230469,0.02344 0.394531,-0.06641 0.488281,-0.273437 2.058594,-4.34375 5.484375,-6.027344 10.28125,-5.046875 0.203125,0.04297 0.378907,-0.0078 0.53125,-0.15625 1.445313,-1.429688 2.976563,-2.5 4.59375,-3.207031 0.152344,-0.07031 0.203125,-0.183594 0.148438,-0.34375 z m 24.101562,2.828125 c -2.609375,-0.453125 -4.339843,0.765625 -6.375,2.109375 -0.351562,0.230469 -0.40625,0.515625 -0.160156,0.855469 1.308594,1.828124 2.289063,3.738281 2.945313,5.730468 0.03906,0.117188 0.117187,0.1875 0.242187,0.207032 0.125,0.01953 0.222656,-0.02344 0.292969,-0.125 1.515625,-2.109376 2.933594,-4.199219 4.261718,-6.269532 0.832032,-1.296875 0.207032,-2.261718 -1.207031,-2.507812 z m 0,0"
     fill-opacity="1"
     fill-rule="nonzero"
     id="path2" />
</svg>
